# xmcd CD database file
#
# Track frame offsets:
#	150
#	32807
#	52120
#	80457
#	100985
#	131317
#	153625
#	179802
#	197930
#	225262
#	246267
#	283880
#
# Disc length: 4047 seconds
#
# Revision: 2
# Processed by: cddbd v1.5PL3 Copyright (c) Steve Scherf et al.
# Submitted via: CDex 1.50Beta5
#
DISCID=ac0fcd0c
DTITLE=Rick Wakeman - Visions
DYEAR=1900
DGENRE=
TTITLE0=Fantasy
TTITLE1=Peace of Mind
TTITLE2=Innermost Thoughts
TTITLE3=Vision Of Light
TTITLE4=Higher Planes
TTITLE5=Astral Traveller
TTITLE6=Dream On
TTITLE7=Thought Waves
TTITLE8=Drifting Patterns
TTITLE9=Future Memories
TTITLE10=Levitation
TTITLE11=Moondreams
EXTD=
EXTT0=
EXTT1=
EXTT2=
EXTT3=
EXTT4=
EXTT5=
EXTT6=
EXTT7=
EXTT8=
EXTT9=
EXTT10=
EXTT11=
PLAYORDER=
